<?xml version="1.0"?>
<svg xmlns="http://www.w3.org/2000/svg" width="53" height="61" viewBox="0 0 53 61" fill="none">
<mask id="path-1-outside-1_293_4674" maskUnits="userSpaceOnUse" x="0.95166" y="0" width="52" height="61" fill="black">
<rect fill="white" x="0.95166" width="52" height="61"/>
<path fill-rule="evenodd" clip-rule="evenodd" d="M10.9517 2C6.53338 2 2.95166 5.58172 2.95166 10V42C2.95166 46.4183 6.53338 50 10.9517 50H21.4247L27.626 57.1606L33.8273 50H42.9517C47.3699 50 50.9517 46.4183 50.9517 42V10C50.9517 5.58172 47.3699 2 42.9517 2H10.9517Z"/>
</mask>
<path fill-rule="evenodd" clip-rule="evenodd" d="M10.9517 2C6.53338 2 2.95166 5.58172 2.95166 10V42C2.95166 46.4183 6.53338 50 10.9517 50H21.4247L27.626 57.1606L33.8273 50H42.9517C47.3699 50 50.9517 46.4183 50.9517 42V10C50.9517 5.58172 47.3699 2 42.9517 2H10.9517Z" fill="#ED1B24"/>
<path d="M21.4247 50L22.9365 48.6907L22.3384 48H21.4247V50ZM27.626 57.1606L26.1141 58.47L27.626 60.2157L29.1378 58.47L27.626 57.1606ZM33.8273 50V48H32.9136L32.3154 48.6907L33.8273 50ZM4.95166 10C4.95166 6.68629 7.63795 4 10.9517 4V0C5.42881 0 0.95166 4.47715 0.95166 10H4.95166ZM4.95166 42V10H0.95166V42H4.95166ZM10.9517 48C7.63795 48 4.95166 45.3137 4.95166 42H0.95166C0.95166 47.5228 5.42881 52 10.9517 52V48ZM21.4247 48H10.9517V52H21.4247V48ZM29.1378 55.8513L22.9365 48.6907L19.9128 51.3093L26.1141 58.47L29.1378 55.8513ZM32.3154 48.6907L26.1141 55.8513L29.1378 58.47L35.3391 51.3093L32.3154 48.6907ZM42.9517 48H33.8273V52H42.9517V48ZM48.9517 42C48.9517 45.3137 46.2654 48 42.9517 48V52C48.4745 52 52.9517 47.5228 52.9517 42H48.9517ZM48.9517 10V42H52.9517V10H48.9517ZM42.9517 4C46.2654 4 48.9517 6.68629 48.9517 10H52.9517C52.9517 4.47715 48.4745 0 42.9517 0V4ZM10.9517 4H42.9517V0H10.9517V4Z" fill="white" mask="url(#path-1-outside-1_293_4674)"/>
<rect x="11.1482" y="9.71729" width="32" height="32" fill="#EC2227"/>
<path d="M40.9486 25.7174C40.9486 32.9559 34.9534 38.8083 27.5384 38.8083C20.1233 38.8083 14.1282 32.9559 14.1282 25.7174C14.1282 18.4789 20.1233 12.6265 27.5384 12.6265C34.9534 12.7805 40.9486 18.6329 40.9486 25.7174Z" fill="white"/>
<path d="M26.4338 17.0928C26.4338 17.0928 22.0164 17.4008 22.0164 21.4051V28.3356C22.0164 28.3356 22.8052 32.4938 26.4338 32.4938H31.3246C31.3246 32.4938 32.9023 32.0318 32.9023 30.7997C32.9023 29.5676 31.9557 29.2596 31.3246 29.2596H27.3804C27.3804 29.2596 26.4338 28.9516 26.4338 28.0275V26.1794H30.378C30.378 26.1794 32.1134 25.8714 32.1134 24.6393C32.1134 23.2532 30.6935 22.9452 30.6935 22.9452H26.276V21.5591C26.276 21.5591 26.4338 20.635 27.3804 20.635H31.1668C31.1668 20.635 32.7445 20.635 32.7445 19.0949C32.7445 17.5548 31.6401 17.2468 31.1668 17.2468C30.6935 17.0928 26.4338 17.0928 26.4338 17.0928Z" fill="#EC2227"/>
<path d="M31.3248 33.4177H26.434C23.1209 33.4177 21.701 30.3375 21.3855 28.6434V28.4894V21.5589C21.3855 17.8627 24.6986 16.6306 26.5918 16.4766C26.5918 16.4766 30.8515 16.4766 31.3248 16.4766C32.2714 16.4766 33.6913 17.0926 33.6913 18.9407C33.6913 20.6349 32.2714 21.2509 31.4826 21.2509H27.3806C27.2229 21.2509 27.0651 21.4049 27.0651 21.5589V22.175H30.8515C31.4826 22.329 32.9025 23.099 32.9025 24.6391C32.9025 26.1792 31.3248 26.7953 30.536 26.9493H30.3782H27.0651V28.1814C27.0651 28.4894 27.3806 28.6434 27.5384 28.6434H31.167C32.2714 28.6434 33.5335 29.4135 33.5335 30.9536C33.3758 32.3397 32.1136 33.1097 31.3248 33.4177ZM22.6476 28.3354C22.8054 28.7974 23.4364 31.8776 26.2762 31.8776H31.0092C31.3248 31.7236 31.9559 31.4156 31.9559 30.7996C31.9559 30.6455 31.9559 29.8755 31.167 29.8755H27.2229H27.0651C26.5918 29.7215 25.6452 29.1054 25.6452 28.0274V25.4092H30.3782C30.536 25.4092 31.4826 25.1012 31.4826 24.4851C31.4826 23.8691 30.8515 23.5611 30.6937 23.407H25.6452V21.0969C25.6452 20.4808 26.2763 19.5568 27.3806 19.5568H31.167C31.4826 19.5568 31.9559 19.4028 31.9559 18.7867C31.9559 17.7086 31.3248 17.7086 31.167 17.7086C30.6937 17.7086 26.434 17.7086 26.434 17.7086C26.2762 17.7086 22.6476 18.0167 22.6476 21.2509V28.3354Z" fill="#EB262A"/>
</svg>
